PathFileType	4	(X/Y/Z)	C:/Users/beibeiliu/ov580/test_trc\sequence.8_training_dense_left.trc
DataRate	CameraRate	NumFrames	NumMarkers	Units	OrigDataRate	OrigDataStartFrame	OrigNumFrames
120	120	11	19	mm	120	1	83
Frame#	Time	ThumbCMC			ThumbMCP			ThumbIP			ThumbTip			IndexMCP			IndexPIP			IndexTip			MiddleMCP			MiddlePIP			MiddleTip			RingMCP			RingPIP			RingTip			PinkyMCP			PinkyPIP			PinkyTip			BackHand1			BackHand2			BackHand3	
		X0	Y0	Z0	X1	Y1	Z1	X2	Y2	Z2	X3	Y3	Z3	X4	Y4	Z4	X5	Y5	Z5	X6	Y6	Z6	X7	Y7	Z7	X8	Y8	Z8	X9	Y9	Z9	X10	Y10	Z10	X11	Y11	Z11	X12	Y12	Z12	X13	Y13	Z13	X14	Y14	Z14	X15	Y15	Z15	X16	Y16	Z16	X17	Y17	Z17	X18	Y18	Z18	
0	0	-124.373	12.9873	54.8704	-109.986	-4.92707	36.9613	-99.1911	-15.462	17.0795	-97.3073	-28.5055	-5.00591	-127.742	9.54292	-13.8237	-120.039	-4.41483	-33.2489	-113.663	-29.6624	-48.8588	-147.124	6.35028	-22.5273	-145.019	-8.13704	-45.6246	-142.895	-32.413	-60.37	-164.889	1.42859	-19.4791	-164.034	-9.35773	-37.1031	-161.221	-26.7854	-52.4513	-187.193	-4.41393	-6.99625	-186.703	-13.7275	-21.0519	-181.124	-26.8157	-38.9864	-171.157	22.9205	21.6548	-175.657	30.2364	51.5656	-148.388	31.7384	37.251	
1	0.00833333	-125.355	12.9664	52.1648	-108.868	-3.76557	35.446	-104.138	-14.0911	16.3229	-98.1653	-28.043	-4.33183	-127.328	10.4946	-15.6661	-120.601	-5.56894	-37.3823	-115.558	-29.7608	-49.2308	-145.151	6.96061	-25.3342	-143.287	-5.02359	-44.298	-142.162	-31.5256	-60.5468	-168.649	3.67319	-18.6168	-161.868	-8.32527	-37.7424	-158.336	-29.406	-55.978	-184.432	-1.30963	-3.98436	-186.33	-15.7336	-25.6778	-184.252	-25.696	-39.0816	-173.086	23.7333	24.5866	-173.585	32.5668	48.2333	-146.365	31.8621	35.3656	
2	0.0166667	-125.638	12.3082	54.2056	-110.884	-3.90048	38.1612	-100.666	-16.1925	13.9636	-98.964	-26.6681	0.144911	-121.397	9.01816	-17.8737	-120.739	-4.3318	-35.3998	-111.856	-25.7391	-47.3373	-147.259	8.12834	-22.4849	-142.656	-6.33648	-44.6137	-138.826	-29.4322	-59.6901	-163.335	5.08072	-16.3638	-160.992	-11.6743	-40.713	-159.05	-29.7012	-54.417	-185.807	-0.781739	-5.73339	-186.543	-14.5316	-23.5556	-182.059	-26.8699	-37.3857	-173.215	24.7021	23.8043	-172.267	31.339	48.3422	-147.79	31.8388	38.0269	
3	0.025	-122.1	11.7289	50.2508	-111.606	-4.8049	35.3574	-102.556	-15.972	16.1123	-97.2663	-27.2181	2.00555	-124.516	7.57617	-17.2369	-116.32	-7.49462	-37.0052	-117.415	-26.2874	-46.9432	-145.281	7.39077	-20.5275	-142.716	-9.10143	-45.6759	-141.304	-31.9	-59.5615	-163.184	2.94682	-18.4715	-162.62	-12.4864	-39.2892	-158.4	-26.8	-51.0237	-181.412	-1.23004	-3.69716	-182.651	-12.8888	-23.7704	-182.982	-25.79	-38.8257	-171.228	22.2763	21.659	-176.145	30.3716	46.8452	-146.174	31.1376	35.3436	
4	0.0333333	-127.37	11.6524	53.993	-110.199	-4.04593	34.0935	-99.4146	-14.3751	17.86	-93.3724	-25.3959	0.482292	-122.576	8.53878	-13.6069	-118.757	-4.46956	-33.4681	-112.582	-25.0394	-47.5171	-142.799	5.60299	-25.4679	-139.984	-11.3994	-46.1347	-139.335	-29.7035	-59.6801	-168.233	0.45796	-16.9974	-161.741	-13.3892	-40.1464	-160.131	-31.2268	-53.4745	-186.721	-4.23871	-5.24006	-181.76	-12.5791	-21.8269	-183.481	-25.3745	-39.0884	-172.59	22.7585	22.2108	-170.818	30.6203	46.2614	-147.317	29.3067	35.5698	
5	0.0416667	-127.141	13.7327	50.2391	-111.106	2.08164	34.6241	-99.9957	-5.49769	13.5673	-88.678	-14.2243	-0.441951	-122.755	9.63743	-12.3288	-121.303	-5.65196	-36.413	-112.774	-20.535	-49.2411	-148.215	4.65636	-24.3916	-142.664	-7.11657	-44.9975	-143.518	-27.1904	-62.4707	-169.908	0.294042	-16.7414	-166.457	-12.4577	-40.0316	-164.285	-25.5628	-53.5672	-185.744	-3.01683	-4.4484	-184.169	-10.7941	-19.7941	-186.582	-23.6744	-37.7233	-170.864	22.7242	26.2318	-174.609	29.2813	48.1539	-145.609	30.162	37.1897	
6	0.05	-126.335	18.3278	51.0438	-109.189	10.479	34.4568	-99.9653	4.93485	18.5758	-87.0455	2.5753	3.03708	-127.012	9.41021	-17.7342	-119.119	0.995353	-32.506	-114.757	-12.3362	-52.1769	-151.221	5.52278	-25.0413	-145.454	-2.36328	-42.9685	-144.732	-18.347	-67.779	-167.723	2.66234	-14.2736	-169.203	-7.51207	-37.088	-165.963	-17.9959	-59.3268	-190.512	-3.49046	-2.87933	-191.4	-11.6236	-23.0491	-194.3	-18.0409	-38.9286	-171.159	21.0819	27.2019	-177.85	29.7091	49.7003	-151.046	32.547	37.4929	
7	0.0583333	-128.741	21.627	55.7613	-111.896	15.7617	38.0928	-96.2161	16.7101	17.4006	-82.644	16.4732	8.6472	-127.739	11.3883	-16.5696	-118.988	1.9664	-36.2475	-116.744	-5.0258	-53.633	-151.976	6.42393	-24.4203	-149.544	-0.694243	-42.9428	-145.685	-10.9506	-70.9439	-170.972	3.13873	-14.7379	-176.785	-5.73148	-35.7752	-176.525	-11.2387	-54.9228	-194.341	-2.68313	-3.0252	-195.686	-8.23851	-16.6691	-204.026	-13.2071	-37.5632	-178.054	20.9341	27.0566	-178.677	30.1105	48.1087	-149.657	34.3718	36.3118	
8	0.0666667	-131.375	22.5391	52.7606	-115.064	18.7773	35.5267	-102.298	19.356	19.2607	-85.1091	23.7934	7.88292	-131.432	11.8718	-14.0447	-123.671	3.65509	-36.9455	-114.272	-1.86718	-56.7948	-155.947	8.06247	-20.6867	-157.183	-0.228468	-45.5666	-155.254	-5.29375	-68.087	-177.9	3.64245	-14.6401	-182.539	-2.42716	-33.505	-181.951	-5.90229	-56.1833	-197.838	-1.20719	4.31271	-201.612	-6.25409	-12.0247	-213.428	-7.58496	-29.818	-177.8	21.1294	26.2551	-181.539	31.3923	51.4302	-153.606	32.4609	37.2854	
9	0.075	-136.203	21.1372	53.5954	-115.091	19.4969	36.6924	-101.625	21.873	22.992	-90.4479	22.5675	11.8038	-134.854	9.20142	-15.0946	-132.464	3.47034	-32.8708	-124.818	1.1273	-55.0996	-160.291	7.05827	-22.5108	-160.304	2.32806	-42.7216	-163.316	-0.891611	-65.8455	-180.704	3.97444	-14.6912	-190.154	-0.761754	-29.5004	-192.128	-3.15288	-51.7221	-198.423	-1.10922	5.67982	-210.476	-6.46737	-10.356	-219.394	-5.6832	-25.0115	-183.909	20.5071	27.4977	-183.291	31.0267	47.8288	-155.443	31.8615	37.5128	
10	0.0833333	-136.035	21.0915	50.9044	-119.698	17.7191	36.2937	-104.583	20.2401	20.4338	-89.6512	25.3072	12.5794	-141.281	7.13875	-16.5055	-134.284	3.40301	-33.499	-130.422	3.54409	-57.3676	-166.93	6.74366	-23.1856	-167.485	3.41062	-40.6867	-174.95	3.60667	-63.9505	-191.322	2.13149	-9.4118	-195.762	0.0106996	-27.5633	-199.82	1.02612	-50.1176	-203.011	-1.81536	7.63038	-215.056	-5.34339	-6.8658	-225.529	-4.35809	-20.0479	-186.213	19.802	28.9538	-184.025	29.1767	48.1724	-159.542	30.7654	36.0393	
